<?xml version="1.0" encoding="UTF-8" standalone="no"?>
<svg version="1.1" xmlns="http://www.w3.org/2000/svg" xmlns:xlink="http://www.w3.org/1999/xlink" width="144" height="122.56">
	<defs>
		<clipPath id="clip_dp_001" clipPathUnits="userSpaceOnUse" clip-rule="nonzero">
			<path d="M 309.921,436.703 L 453.923,436.703 L 453.923,559.371 L 309.921,559.371 Z " clip-rule="nonzero"/>
		</clipPath>
		<clipPath id="clip_dp_002" clipPathUnits="userSpaceOnUse" clip-rule="nonzero">
			<path d="M 309.921,436.892 L 453.264,436.892 L 453.264,559.371 L 309.921,559.371 Z " clip-rule="nonzero"/>
		</clipPath>
		<clipPath id="clip_dp_003" clipPathUnits="userSpaceOnUse" clip-rule="nonzero">
			<path d="M 380.057,442.2 C 364.951,442.2 352.703,454.453 352.703,469.571 C 352.703,477.704 356.253,485.007 361.883,490.02 C 367.928,480.059 382.264,459.06 400.019,450.865 C 395.028,445.535 387.933,442.2 380.057,442.2 Z " clip-rule="nonzero"/>
		</clipPath>
		<clipPath id="clip_dp_004" clipPathUnits="userSpaceOnUse" clip-rule="nonzero">
			<path d="M 353.26,475.093 C 352.895,473.311 352.703,471.463 352.703,469.571 C 352.703,454.453 364.951,442.2 380.057,442.2 C 383.665,442.2 387.108,442.9 390.261,444.171 C 387.12,442.913 383.691,442.221 380.101,442.221 C 364.977,442.221 352.717,454.493 352.717,469.632 C 352.717,471.503 352.904,473.329 353.26,475.093 Z " clip-rule="nonzero"/>
		</clipPath>
		<clipPath id="clip_dp_005" clipPathUnits="userSpaceOnUse" clip-rule="nonzero">
			<path d="M 361.883,490.02 C 357.563,486.173 354.467,480.979 353.26,475.093 C 352.904,473.329 352.717,471.503 352.717,469.632 C 352.717,454.493 364.977,442.221 380.101,442.221 C 383.691,442.221 387.12,442.913 390.261,444.171 C 393.991,445.673 397.313,447.976 400.019,450.865 C 382.264,459.06 367.928,480.059 361.883,490.02 Z " clip-rule="nonzero"/>
		</clipPath>
	</defs>
	<g id="dp_dp001" transform="matrix(1,0,0,1,-309.921,-436.703)" clip-path="url(#clip_dp_001)">
		<g id="clip">
			<g id="dp_dp002" clip-path="url(#clip_dp_002)">
				<g id="clip">
					<path id="dp_path003" fill="#77171b" fill-rule="evenodd" stroke="none" stroke-width="0" d="M 309.921,542.903 L 453.08,542.905 L 453.089,541.759 L 309.929,541.757 Z M 380.101,497.044 C 395.224,497.044 407.484,484.772 407.484,469.632 C 407.484,454.493 395.224,442.221 380.101,442.221 C 364.977,442.221 352.717,454.493 352.717,469.632 C 352.717,484.772 364.977,497.044 380.101,497.044 Z M 445.54,510.649 L 445.54,512.152 L 446.471,512.152 C 447.019,512.152 447.353,512.164 447.472,512.189 C 447.664,512.249 447.804,512.336 447.893,512.452 C 447.983,512.567 448.027,512.707 448.027,512.876 C 448.027,512.997 448.005,513.115 447.964,513.229 C 447.923,513.344 447.795,513.595 447.58,513.98 L 442.196,523.347 L 437.325,514.32 C 437.229,514.14 437.152,514.001 437.092,513.905 C 436.867,513.496 436.753,513.171 436.753,512.929 C 436.753,512.652 436.845,512.455 437.031,512.333 C 437.215,512.213 437.631,512.152 438.273,512.152 L 439.329,512.152 L 439.329,510.649 L 429.987,510.649 L 429.987,512.152 C 430.941,512.177 431.595,512.283 431.947,512.469 C 432.299,512.656 432.737,513.225 433.261,514.179 L 439.868,525.927 L 439.867,531.552 C 439.867,532.436 439.812,532.991 439.705,533.217 C 439.551,533.54 439.339,533.773 439.071,533.917 C 438.803,534.06 438.268,534.132 437.469,534.132 L 436.717,534.132 L 436.717,535.637 L 446.471,535.637 L 446.471,534.132 C 445.289,534.132 444.537,534.069 444.216,533.944 C 443.893,533.817 443.659,533.619 443.508,533.344 C 443.36,533.069 443.284,532.472 443.284,531.552 L 443.284,525.264 L 450.06,513.985 C 450.441,513.345 450.736,512.924 450.945,512.724 C 451.153,512.525 451.423,512.376 451.751,512.28 C 452.079,512.184 452.583,512.141 453.263,512.152 L 453.263,510.649 Z M 410.66,513.872 L 414.501,524.62 L 406.792,524.62 Z M 401.26,533.263 C 401.035,533.568 400.768,533.788 400.464,533.925 C 400.16,534.063 399.661,534.132 398.971,534.132 L 398.971,535.637 L 406.432,535.637 L 406.432,534.132 C 406.229,534.12 405.968,534.113 405.645,534.113 C 405.168,534.113 404.821,534.069 404.607,533.98 C 404.392,533.889 404.223,533.756 404.096,533.577 C 403.972,533.397 403.909,533.189 403.909,532.949 C 403.909,532.735 404.011,532.347 404.213,531.785 L 406.16,526.375 L 415.204,526.375 L 416.857,531.212 C 417.191,532.192 417.357,532.807 417.357,533.057 C 417.357,533.404 417.184,533.691 416.839,533.917 C 416.659,534.036 416.284,534.096 415.711,534.096 C 415.436,534.096 415.156,534.108 414.869,534.132 L 414.869,535.637 L 423.755,535.637 L 423.755,534.132 L 423.36,534.132 C 422.703,534.132 422.183,533.963 421.795,533.623 C 421.407,533.283 421.021,532.588 420.64,531.539 L 412.871,510.649 L 409.944,510.649 L 402.155,531.337 C 401.785,532.316 401.487,532.959 401.26,533.263 Z M 386.823,513.045 C 386.979,512.715 387.191,512.483 387.459,512.352 C 387.727,512.219 388.249,512.152 389.024,512.152 L 389.668,512.152 L 389.668,510.649 L 382.059,510.649 L 374.86,530.441 L 367.491,510.649 L 359.605,510.649 L 359.605,512.152 L 360.464,512.152 C 361.239,512.152 361.78,512.225 362.084,512.368 C 362.388,512.513 362.605,512.733 362.736,513.028 C 362.868,513.321 362.933,513.927 362.933,514.84 L 362.933,531.157 C 362.933,532.125 362.856,532.773 362.701,533.101 C 362.545,533.429 362.285,533.684 361.923,533.864 C 361.559,534.041 360.952,534.132 360.107,534.132 L 359.605,534.132 L 359.605,535.637 L 368.392,535.637 L 368.392,534.132 L 367.819,534.132 C 366.972,534.132 366.384,534.044 366.056,533.869 C 365.728,533.697 365.487,533.449 365.332,533.132 C 365.176,532.813 365.099,532.203 365.099,531.303 L 365.099,513.604 L 373.303,535.637 L 375.091,535.637 L 383.244,513.281 L 383.244,531.677 C 383.244,531.952 383.213,532.335 383.155,532.824 C 383.131,533.063 383.027,533.293 382.841,533.515 C 382.656,533.735 382.423,533.893 382.144,533.988 C 381.864,534.085 381.419,534.132 380.811,534.132 L 380.131,534.132 L 380.131,535.637 L 389.668,535.637 L 389.668,534.132 L 389.024,534.132 C 388.237,534.132 387.697,534.051 387.404,533.889 C 387.112,533.728 386.904,533.492 386.779,533.183 C 386.652,532.872 386.591,532.197 386.591,531.157 L 386.591,514.679 C 386.591,513.921 386.668,513.376 386.823,513.045 Z M 349.108,534.132 L 348.373,534.132 C 347.647,534.132 347.143,534.053 346.863,533.899 C 346.581,533.744 346.364,533.496 346.209,533.155 C 346.053,532.815 345.976,532.24 345.976,531.427 L 345.976,515.323 C 345.976,514.303 346.048,513.616 346.191,513.261 C 346.335,512.907 346.561,512.633 346.871,512.441 C 347.181,512.249 347.683,512.152 348.373,512.152 L 349.108,512.152 L 349.108,510.649 L 339.552,510.649 L 339.552,512.152 L 340.34,512.152 C 341.043,512.152 341.541,512.228 341.833,512.377 C 342.125,512.529 342.337,512.763 342.469,513.081 C 342.6,513.4 342.665,514.023 342.665,514.947 L 342.665,531.427 C 342.665,532.299 342.6,532.887 342.469,533.192 C 342.337,533.496 342.125,533.728 341.833,533.889 C 341.541,534.051 341.043,534.132 340.34,534.132 L 339.552,534.132 L 339.552,535.637 L 349.108,535.637 Z M 331.22,527.809 L 329.628,527.271 C 328.864,528.968 328.071,530.243 327.248,531.095 C 326.424,531.949 325.447,532.6 324.312,533.048 C 323.179,533.496 321.843,533.72 320.304,533.72 L 318.963,533.72 C 318.163,533.72 317.68,533.684 317.513,533.612 C 317.275,533.517 317.119,533.361 317.048,533.147 C 316.988,532.991 316.957,532.515 316.957,531.713 L 316.957,514.284 C 316.957,513.635 317.024,513.183 317.155,512.929 C 317.285,512.677 317.495,512.484 317.781,512.352 C 318.068,512.219 318.557,512.152 319.249,512.152 L 320.144,512.152 L 320.144,510.649 L 310.463,510.649 L 310.463,512.152 L 311.249,512.152 C 312.06,512.152 312.592,512.216 312.843,512.343 C 313.092,512.469 313.283,512.679 313.415,512.975 C 313.545,513.268 313.612,513.849 313.612,514.715 L 313.612,531.713 C 313.612,532.455 313.54,532.977 313.397,533.281 C 313.255,533.585 313.051,533.804 312.788,533.935 C 312.527,534.067 312.013,534.132 311.249,534.132 L 310.463,534.132 L 310.463,535.637 L 328.428,535.637 Z "/>
					<g id="dp_dp004" clip-path="url(#clip_dp_003)">
						<g id="clip">
							<g id="dp_dp005" clip-path="url(#clip_dp_004)">
								<g id="clip">
									<image id="dp_image006" transform="matrix(1,0,0,1,42.412,5.12)" fill="none" x="0" y="0" width="38.4027" height="33.6027" xlink:href="DrawC882_images/DrawC882_001.png"/>
								</g>
							</g>
							<g id="dp_dp007" clip-path="url(#clip_dp_005)">
								<g id="clip">
									<image id="dp_image008" transform="matrix(1,0,0,1,42.412,5.12)" fill="none" x="0" y="0" width="48.0027" height="48.6427" xlink:href="DrawC882_images/DrawC882_002.png"/>
								</g>
							</g>
						</g>
					</g>
					<path id="dp_path009" fill="#fefefe" fill-rule="evenodd" stroke="none" stroke-width="0" d="M 383.171,476.761 C 383.171,477.505 383.099,478.029 382.956,478.335 C 382.812,478.64 382.608,478.859 382.345,478.991 C 382.095,479.116 381.611,479.179 380.909,479.185 C 380.207,479.179 379.723,479.116 379.473,478.991 C 379.209,478.859 379.007,478.64 378.863,478.335 C 378.719,478.029 378.647,477.505 378.647,476.761 L 378.647,459.707 C 378.647,458.839 378.713,458.256 378.844,457.96 C 378.976,457.665 379.168,457.453 379.419,457.327 C 379.657,457.207 380.16,457.144 380.909,457.14 C 381.657,457.144 382.159,457.207 382.399,457.327 C 382.651,457.453 382.841,457.665 382.975,457.96 C 383.105,458.256 383.171,458.839 383.171,459.707 L 383.171,476.761 Z M 399.24,472.305 C 398.475,474.007 397.677,475.285 396.852,476.143 C 396.027,476.999 395.044,477.652 393.908,478.1 C 392.769,478.551 391.429,478.775 389.885,478.775 L 388.539,478.775 C 387.737,478.775 387.253,478.739 387.085,478.667 C 386.845,478.571 386.691,478.416 386.619,478.2 C 386.559,478.044 386.529,477.564 386.529,476.761 L 386.529,459.276 C 386.529,458.623 386.593,458.171 386.725,457.916 C 386.857,457.663 387.067,457.469 387.355,457.336 C 387.643,457.203 388.132,457.137 388.827,457.137 L 389.724,457.137 L 389.724,455.627 L 372.093,455.627 L 372.093,457.137 L 372.992,457.137 C 373.685,457.137 374.176,457.203 374.464,457.336 C 374.751,457.469 374.96,457.663 375.092,457.916 C 375.224,458.171 375.289,458.623 375.289,459.276 L 375.289,476.761 C 375.289,477.564 375.26,478.044 375.2,478.2 C 375.128,478.416 374.973,478.571 374.733,478.667 C 374.565,478.739 374.081,478.775 373.279,478.775 L 371.932,478.775 C 370.388,478.775 369.048,478.551 367.911,478.1 C 366.773,477.652 365.792,476.999 364.967,476.143 C 364.14,475.285 363.344,474.007 362.579,472.305 L 360.98,472.844 L 363.781,480.697 L 398.036,480.697 L 400.837,472.844 L 399.24,472.305 Z "/>
					<path id="dp_path010" fill="#47484a" fill-rule="evenodd" stroke="none" stroke-width="0" d="M 442.276,553.907 L 442.276,554.535 C 442.843,554.535 443.191,554.561 443.321,554.616 C 443.489,554.687 443.62,554.803 443.712,554.967 C 443.804,555.132 443.849,555.411 443.849,555.803 L 443.849,556.296 C 443.855,556.659 443.825,556.943 443.761,557.147 C 443.696,557.351 443.571,557.536 443.388,557.705 C 443.139,557.929 442.812,558.123 442.413,558.284 C 442.012,558.445 441.591,558.528 441.147,558.528 C 440.461,558.528 439.812,558.335 439.2,557.952 C 438.588,557.569 438.097,557.012 437.732,556.28 C 437.367,555.548 437.184,554.745 437.184,553.869 C 437.184,552.649 437.541,551.6 438.257,550.72 C 438.973,549.839 439.861,549.399 440.92,549.399 C 441.655,549.399 442.313,549.616 442.895,550.048 C 443.477,550.48 443.992,551.204 444.44,552.22 L 445.111,551.988 L 444.261,548.78 L 443.717,548.78 L 443.455,549.467 C 443.171,549.253 442.923,549.097 442.708,549.003 C 442.424,548.873 442.112,548.775 441.768,548.704 C 441.425,548.636 441.079,548.6 440.725,548.6 C 439.317,548.6 438.111,549.117 437.101,550.152 C 436.092,551.188 435.589,552.467 435.589,553.989 C 435.589,555.523 436.087,556.803 437.084,557.829 C 438.08,558.857 439.276,559.369 440.673,559.369 C 441.364,559.369 442.063,559.244 442.768,558.989 C 443.241,558.82 443.685,558.585 444.104,558.28 L 444.499,559.192 L 445.236,559.192 L 445.236,555.587 C 445.236,555.239 445.261,555.004 445.312,554.884 L 445.547,554.62 C 445.653,554.563 445.853,554.535 446.147,554.535 L 446.489,554.535 L 446.489,553.907 L 442.276,553.907 Z M 427.724,549.407 L 427.993,549.407 C 428.267,549.407 428.473,549.447 428.612,549.527 C 428.752,549.607 428.856,549.724 428.924,549.879 C 428.995,550.035 429.031,550.289 429.031,550.647 L 429.031,556.587 L 424.3,548.78 L 421.111,548.78 L 421.111,549.407 L 421.379,549.407 C 421.757,549.407 422.009,549.444 422.137,549.519 C 422.263,549.593 422.349,549.716 422.393,549.887 C 422.413,549.977 422.424,550.229 422.424,550.647 L 422.424,557.244 C 422.424,557.647 422.388,557.932 422.319,558.101 C 422.249,558.271 422.151,558.389 422.025,558.46 C 421.897,558.531 421.655,558.564 421.297,558.564 L 421.111,558.564 L 421.111,559.192 L 424.631,559.192 L 424.631,558.564 C 424.253,558.559 424.001,558.539 423.877,558.504 C 423.753,558.471 423.645,558.405 423.553,558.311 L 423.363,557.997 C 423.339,557.908 423.325,557.656 423.325,557.244 L 423.325,549.811 L 429.031,559.192 L 429.932,559.192 L 429.932,550.647 C 429.932,550.311 429.971,550.049 430.047,549.865 C 430.123,549.679 430.239,549.552 430.392,549.481 C 430.5,549.431 430.707,549.407 431.015,549.407 L 431.2,549.407 L 431.2,548.78 L 427.724,548.78 L 427.724,549.407 Z M 412.808,549.407 L 413.136,549.407 C 413.429,549.407 413.637,549.437 413.759,549.5 C 413.88,549.563 413.969,549.66 414.024,549.793 C 414.079,549.925 414.105,550.185 414.105,550.571 L 414.105,557.437 C 414.105,557.801 414.079,558.045 414.024,558.172 C 413.969,558.3 413.88,558.396 413.759,558.464 C 413.637,558.531 413.429,558.564 413.136,558.564 L 412.808,558.564 L 412.808,559.192 L 416.789,559.192 L 416.789,558.564 L 416.484,558.564 C 416.181,558.564 415.971,558.532 415.855,558.468 C 415.737,558.403 415.645,558.3 415.583,558.157 C 415.517,558.016 415.484,557.776 415.484,557.437 L 415.484,550.727 C 415.484,550.303 415.515,550.016 415.575,549.868 C 415.635,549.72 415.728,549.607 415.857,549.527 C 415.987,549.447 416.196,549.407 416.484,549.407 L 416.789,549.407 L 416.789,548.78 L 412.808,548.78 L 412.808,549.407 Z M 407.651,548.428 L 407.591,548.78 L 401.209,548.78 L 401.135,548.428 L 400.612,548.428 L 399.539,551.488 L 400.209,551.728 C 400.415,551.196 400.66,550.761 400.948,550.428 C 401.237,550.095 401.543,549.86 401.868,549.72 C 402.195,549.581 402.628,549.511 403.171,549.511 C 403.364,549.511 403.492,549.525 403.553,549.552 L 403.681,549.668 C 403.703,549.717 403.713,549.857 403.713,550.085 L 403.713,557.46 C 403.713,557.835 403.677,558.093 403.603,558.233 C 403.528,558.373 403.404,558.469 403.229,558.52 C 403.131,558.544 402.86,558.559 402.417,558.564 L 402.417,559.192 L 406.428,559.192 L 406.428,558.564 C 406.005,558.559 405.733,558.543 405.612,558.516 C 405.489,558.488 405.395,558.443 405.324,558.377 L 405.164,558.101 C 405.128,557.981 405.108,557.751 405.108,557.408 L 405.108,550.183 C 405.108,549.889 405.12,549.715 405.143,549.66 L 405.257,549.544 C 405.312,549.523 405.484,549.511 405.772,549.511 C 406.464,549.511 407.031,549.676 407.473,550.007 C 407.915,550.339 408.297,550.912 408.62,551.728 L 409.292,551.488 L 408.196,548.428 L 407.651,548.428 Z M 394.733,557.3 C 394.389,557.655 393.981,557.925 393.511,558.112 C 393.037,558.3 392.48,558.392 391.84,558.392 L 391.28,558.392 C 390.948,558.392 390.747,558.377 390.677,558.348 L 390.483,558.153 C 390.459,558.089 390.445,557.889 390.445,557.556 L 390.445,550.295 C 390.445,550.024 390.473,549.835 390.528,549.731 L 390.788,549.489 C 390.908,549.433 391.112,549.407 391.4,549.407 L 391.772,549.407 L 391.772,548.78 L 387.739,548.78 L 387.739,549.407 L 388.067,549.407 C 388.405,549.407 388.627,549.432 388.731,549.485 C 388.835,549.537 388.915,549.625 388.969,549.749 C 389.024,549.871 389.051,550.113 389.051,550.475 L 389.051,557.556 C 389.051,557.865 389.021,558.084 388.961,558.209 C 388.903,558.336 388.817,558.427 388.708,558.481 C 388.599,558.536 388.385,558.564 388.067,558.564 L 387.739,558.564 L 387.739,559.192 L 395.225,559.192 L 396.388,555.929 L 395.724,555.705 C 395.407,556.413 395.076,556.944 394.733,557.3 Z M 379.921,549.407 L 380.211,549.407 C 380.489,549.407 380.695,549.441 380.827,549.512 C 380.959,549.583 381.056,549.689 381.121,549.835 C 381.185,549.98 381.217,550.217 381.217,550.548 L 381.217,555.06 C 381.217,555.932 381.116,556.569 380.912,556.973 C 380.708,557.376 380.353,557.725 379.845,558.02 C 379.339,558.313 378.803,558.46 378.235,558.46 C 377.673,558.46 377.157,558.323 376.688,558.048 C 376.219,557.775 375.883,557.436 375.681,557.033 C 375.48,556.629 375.38,556.009 375.38,555.172 L 375.38,550.48 C 375.38,550.12 375.407,549.88 375.461,549.759 L 375.708,549.504 C 375.847,549.439 376.08,549.407 376.408,549.407 L 376.677,549.407 L 376.677,548.78 L 372.659,548.78 L 372.659,549.407 L 373.031,549.407 C 373.315,549.407 373.513,549.436 373.628,549.496 C 373.741,549.556 373.829,549.653 373.888,549.787 C 373.948,549.919 373.979,550.149 373.979,550.48 L 373.979,555.587 C 373.979,556.372 374.131,557.025 374.436,557.545 C 374.743,558.065 375.22,558.499 375.872,558.848 C 376.523,559.196 377.241,559.369 378.027,559.369 C 378.857,559.369 379.585,559.2 380.211,558.86 C 380.837,558.519 381.315,558.055 381.644,557.471 C 381.972,556.885 382.136,556.156 382.136,555.28 L 382.136,550.48 C 382.136,550.065 382.208,549.783 382.355,549.632 C 382.501,549.481 382.771,549.407 383.164,549.407 L 383.403,549.407 L 383.403,548.78 L 379.921,548.78 L 379.921,549.407 Z M 367.568,554.415 C 367.315,554.193 366.961,553.983 366.507,553.784 C 366.052,553.585 365.705,553.451 365.467,553.38 L 363.521,552.804 C 362.9,552.62 362.452,552.445 362.179,552.279 C 361.905,552.112 361.701,551.92 361.567,551.703 C 361.432,551.483 361.365,551.257 361.365,551.024 C 361.365,550.764 361.452,550.512 361.625,550.263 C 361.8,550.015 362.06,549.813 362.408,549.656 C 362.755,549.499 363.147,549.421 363.584,549.421 C 364.309,549.421 364.969,549.639 365.565,550.071 C 366.289,550.589 366.871,551.297 367.308,552.199 L 368.001,551.988 L 367.204,548.78 L 366.667,548.78 L 366.353,549.496 C 366.04,549.237 365.697,549.037 365.324,548.899 C 364.797,548.7 364.245,548.6 363.669,548.6 C 362.983,548.6 362.352,548.737 361.775,549.011 C 361.199,549.284 360.771,549.624 360.492,550.031 C 360.215,550.435 360.075,550.876 360.075,551.355 C 360.075,551.967 360.288,552.509 360.716,552.981 C 361.144,553.455 361.88,553.843 362.924,554.147 L 364.787,554.684 C 365.632,554.932 366.219,555.201 366.547,555.489 C 366.869,555.777 367.032,556.148 367.032,556.601 C 367.032,557.093 366.808,557.523 366.361,557.885 C 365.824,558.317 365.197,558.535 364.481,558.535 C 363.955,558.535 363.436,558.412 362.927,558.164 C 362.417,557.919 361.952,557.553 361.533,557.072 C 361.113,556.589 360.776,556.001 360.523,555.311 L 359.829,555.452 L 360.521,559.192 L 361.044,559.192 L 361.388,558.199 C 361.929,558.637 362.433,558.941 362.901,559.113 C 363.368,559.284 363.897,559.369 364.489,559.369 C 365.637,559.369 366.573,559.06 367.296,558.44 C 368.02,557.82 368.381,557.097 368.381,556.271 C 368.381,555.897 368.309,555.549 368.165,555.229 C 368.021,554.908 367.823,554.637 367.568,554.415 Z M 351.868,549.407 L 352.137,549.407 C 352.411,549.407 352.617,549.447 352.756,549.527 C 352.895,549.607 353,549.724 353.069,549.879 C 353.139,550.035 353.173,550.289 353.173,550.647 L 353.173,556.587 L 348.443,548.78 L 345.256,548.78 L 345.256,549.407 L 345.524,549.407 C 345.901,549.407 346.153,549.444 346.28,549.519 C 346.407,549.593 346.493,549.716 346.537,549.887 C 346.557,549.977 346.567,550.229 346.567,550.647 L 346.567,557.244 C 346.567,557.647 346.533,557.932 346.463,558.101 C 346.393,558.271 346.296,558.389 346.169,558.46 C 346.041,558.531 345.8,558.564 345.441,558.564 L 345.256,558.564 L 345.256,559.192 L 348.775,559.192 L 348.775,558.564 C 348.396,558.559 348.145,558.539 348.021,558.504 C 347.897,558.471 347.789,558.405 347.697,558.311 L 347.507,557.997 C 347.481,557.908 347.469,557.656 347.469,557.244 L 347.469,549.811 L 353.173,559.192 L 354.076,559.192 L 354.076,550.647 C 354.076,550.311 354.115,550.049 354.191,549.865 C 354.267,549.679 354.383,549.552 354.535,549.481 C 354.644,549.431 354.852,549.407 355.159,549.407 L 355.343,549.407 L 355.343,548.78 L 351.868,548.78 L 351.868,549.407 Z M 338.599,556.44 C 338.251,557.195 337.809,557.748 337.276,558.097 C 336.744,558.448 336.131,558.624 335.439,558.624 C 334.741,558.624 334.113,558.444 333.556,558.087 C 332.999,557.728 332.553,557.212 332.223,556.537 C 331.891,555.864 331.725,555.041 331.725,554.071 C 331.725,553.056 331.893,552.203 332.229,551.511 C 332.565,550.819 333.012,550.296 333.571,549.94 C 334.128,549.585 334.796,549.407 335.573,549.407 C 336.305,549.407 336.917,549.565 337.411,549.884 C 337.904,550.203 338.3,550.696 338.599,551.363 C 338.948,552.139 339.121,552.993 339.121,553.928 C 339.121,554.851 338.948,555.687 338.599,556.44 Z M 338.151,549.287 C 337.385,548.829 336.527,548.6 335.576,548.6 C 334.563,548.6 333.629,548.836 332.779,549.309 C 331.928,549.781 331.271,550.425 330.809,551.239 C 330.345,552.052 330.115,552.972 330.115,553.996 C 330.115,555.375 330.525,556.559 331.345,557.549 C 332.351,558.763 333.713,559.369 335.435,559.369 C 336.977,559.369 338.245,558.867 339.24,557.856 C 340.235,556.845 340.732,555.539 340.732,553.936 C 340.732,552.903 340.509,551.991 340.064,551.204 C 339.619,550.42 338.981,549.78 338.151,549.287 Z M 323.377,557.891 C 322.687,558.269 322.011,558.46 321.349,558.46 C 320.648,558.46 319.995,558.271 319.388,557.892 C 318.783,557.513 318.301,556.973 317.945,556.271 C 317.589,555.569 317.412,554.769 317.412,553.873 C 317.412,553.001 317.588,552.217 317.939,551.521 C 318.288,550.823 318.745,550.295 319.309,549.932 C 319.873,549.572 320.492,549.391 321.163,549.391 C 321.735,549.391 322.257,549.521 322.732,549.78 C 323.207,550.037 323.604,550.389 323.921,550.832 C 324.116,551.105 324.399,551.644 324.772,552.444 L 325.465,552.251 L 324.52,548.78 L 323.983,548.78 L 323.743,549.467 C 323.3,549.163 322.864,548.943 322.435,548.805 C 322.004,548.669 321.537,548.6 321.036,548.6 C 320.096,548.6 319.221,548.841 318.408,549.324 C 317.595,549.808 316.957,550.457 316.496,551.276 C 316.033,552.093 315.803,553.009 315.803,554.019 C 315.803,555.392 316.22,556.577 317.055,557.572 C 318.063,558.771 319.376,559.369 320.992,559.369 C 321.723,559.369 322.393,559.249 323.004,559.004 C 323.616,558.76 324.205,558.383 324.772,557.869 C 325.129,557.552 325.463,557.163 325.771,556.705 L 325.175,556.296 C 324.668,556.98 324.068,557.511 323.377,557.891 Z M 350.008,469.632 C 350.008,453.023 363.508,439.511 380.101,439.511 C 396.695,439.511 410.193,453.023 410.193,469.632 C 410.193,486.243 396.695,499.755 380.101,499.755 C 363.508,499.755 350.008,486.243 350.008,469.632 Z M 412.811,469.632 C 412.811,451.579 398.137,436.892 380.101,436.892 C 362.065,436.892 347.392,451.579 347.392,469.632 C 347.392,487.687 362.065,502.373 380.101,502.373 C 398.137,502.373 412.811,487.687 412.811,469.632 Z "/>
				</g>
			</g>
		</g>
	</g>
</svg>